<?xml version="1.0" ?><svg id="Слой_1" style="enable-background:new 0 0 300 300;" version="1.1" viewBox="0 0 300 300" xml:space="preserve" xmlns="http://www.w3.org/2000/svg" xmlns:xlink="http://www.w3.org/1999/xlink"><g><path d="M236.245,114.345c-2.316-33.929-30.554-60.739-65.072-60.739c-30.31,0-55.786,20.67-63.117,48.682   c-4.324-2.644-9.39-4.196-14.83-4.196c-15.742,0-28.503,12.761-28.503,28.503c0,0.107,0.015,0.211,0.016,0.318   c-1.623-0.192-3.266-0.318-4.941-0.318c-23.05,0-41.736,18.686-41.736,41.736s18.686,41.736,41.736,41.736h19.679h8.181   c-2.494-6.871-3.859-14.279-3.859-22c0-35.649,29.004-64.653,64.654-64.653c35.65,0,64.654,29.004,64.654,64.653   c0,7.722-1.365,15.129-3.859,22h14.202h10.598c26.448,0,47.889-21.441,47.889-47.889   C281.938,136.467,261.673,115.494,236.245,114.345z" style="fill:#3DA3DB;"/><path d="M206.779,188.067c0-32.16-26.165-58.324-58.325-58.324c-32.161,0-58.326,26.165-58.326,58.324   c0,32.162,26.165,58.327,58.326,58.327C180.614,246.394,206.779,220.229,206.779,188.067z M151.589,236.351   c-1.157,0.082-2.307,0.122-3.45,0.122c-25.093,0-46.143-19.628-47.922-44.685c-0.91-12.812,3.225-25.211,11.641-34.914   c8.417-9.703,20.108-15.547,32.92-16.456c26.563-1.887,49.513,18.365,51.372,44.561   C198.027,211.429,178.037,234.472,151.589,236.351z" style="fill:#3DA3DB;"/><path d="M147.937,195.164l0.252,0.008c1.8,0,3.311-1.409,3.438-3.208c0.066-0.923-0.231-1.813-0.835-2.509   c-0.605-0.696-1.444-1.117-2.364-1.182l-0.252-0.008c-1.8,0-3.311,1.409-3.438,3.208c-0.066,0.921,0.232,1.813,0.836,2.509   C146.179,194.678,147.018,195.098,147.937,195.164z" style="fill:#3DA3DB;"/><path d="M190.468,185.383c-1.568-22.09-20.121-39.392-42.237-39.392c-1.008,0-2.027,0.037-3.049,0.109   c-11.294,0.801-21.601,5.953-29.02,14.507c-7.42,8.553-11.065,19.484-10.263,30.777c1.64,23.097,21.885,40.937,45.286,39.285   C174.501,229.013,192.123,208.699,190.468,185.383z M120.728,188.871h20.371c0.837-2.075,2.52-3.715,4.63-4.429v-32.005h5.696   v32.343c0.963,0.449,1.837,1.085,2.554,1.912c1.343,1.549,2.002,3.527,1.857,5.572c-0.283,3.996-3.642,7.128-7.646,7.128h-0.001   c-0.182,0-0.366-0.006-0.551-0.021c-2.043-0.144-3.908-1.075-5.251-2.624c-0.569-0.655-0.986-1.399-1.301-2.182h-20.359V188.871z" style="fill:#3DA3DB;"/></g></svg>